<?xml version="1.0" standalone="no"?>
<!DOCTYPE svg PUBLIC "-//W3C//DTD SVG 20010904//EN"
 "http://www.w3.org/TR/2001/REC-SVG-20010904/DTD/svg10.dtd">
<svg version="1.0" xmlns="http://www.w3.org/2000/svg"
 width="1024.000000pt" height="1024.000000pt" viewBox="0 0 1024.000000 1024.000000"
 preserveAspectRatio="xMidYMid meet">
<metadata>
Created by potrace 1.16, written by Peter Selinger 2001-2019
</metadata>
<g transform="translate(0.000000,1024.000000) scale(0.100000,-0.100000)"
fill="#000000" stroke="none">
<path d="M4972 7968 c-23 -13 -92 -72 -154 -132 -321 -311 -387 -375 -553
-532 -99 -94 -272 -257 -385 -364 -113 -107 -250 -237 -305 -290 -55 -53 -251
-240 -435 -416 -184 -175 -385 -368 -446 -429 -105 -104 -112 -113 -123 -166
-23 -110 23 -212 124 -274 41 -26 58 -30 114 -29 93 1 127 21 268 156 68 65
127 118 133 118 7 0 10 -141 10 -424 l0 -423 91 -17 c49 -9 125 -28 167 -41
42 -14 80 -25 84 -25 4 0 9 283 10 628 l3 629 110 104 c175 167 781 744 890
849 55 53 154 147 220 210 66 63 157 150 203 194 l82 79 83 -79 c45 -44 219
-210 387 -369 168 -160 361 -344 430 -410 69 -66 175 -167 235 -224 61 -58
171 -164 245 -235 l135 -131 5 -1056 5 -1056 141 106 c77 58 155 118 172 133
l32 27 2 772 3 772 132 -126 c73 -69 147 -134 165 -144 49 -26 161 -24 214 4
52 28 108 90 124 138 18 54 8 161 -19 206 -12 20 -74 85 -139 145 -64 60 -171
161 -237 224 -243 233 -514 490 -670 636 -241 225 -758 717 -1052 1002 -154
148 -277 259 -297 267 -55 23 -155 19 -204 -7z"/>
<path d="M5830 7972 c-55 -27 -80 -87 -80 -192 l0 -85 112 -108 c62 -59 134
-126 161 -148 l47 -41 0 151 0 151 105 0 105 0 0 -254 0 -254 38 -32 c20 -18
83 -77 140 -132 l102 -99 0 473 c0 527 1 519 -69 565 -33 23 -39 23 -330 23
-262 0 -300 -2 -331 -18z"/>
<path d="M4575 5878 c-42 -24 -44 -36 -45 -236 0 -259 -16 -242 234 -242 184
0 185 0 215 26 l31 26 0 190 0 190 -29 29 -29 29 -179 0 c-115 -1 -185 -5
-198 -12z"/>
<path d="M5220 5877 c-46 -23 -51 -48 -48 -245 l3 -184 29 -24 c28 -25 29 -25
217 -22 250 4 233 -12 237 225 4 194 -2 224 -49 248 -37 20 -351 21 -389 2z"/>
<path d="M5380 5230 c-96 -4 -176 -7 -177 -8 -1 -1 -9 -15 -18 -32 -21 -40
-22 -345 -1 -395 21 -49 59 -58 251 -53 179 3 199 10 216 68 6 20 9 105 7 202
-3 164 -4 168 -28 192 -33 31 -45 32 -250 26z"/>
<path d="M4552 5207 c-21 -22 -22 -32 -22 -215 0 -187 0 -191 24 -219 l24 -28
192 0 192 0 24 28 c24 28 24 32 24 216 0 186 0 188 -25 215 l-24 26 -194 0
c-189 0 -194 0 -215 -23z"/>
<path d="M2795 4523 c-22 -2 -97 -13 -167 -25 l-128 -21 0 -110 c0 -486 231
-953 625 -1262 176 -138 381 -240 883 -439 431 -171 765 -285 917 -312 217
-38 476 2 890 141 318 106 386 140 715 359 271 180 1016 709 1068 759 101 96
96 234 -11 321 -33 27 -48 31 -111 34 -48 3 -84 -1 -107 -11 -19 -8 -211 -131
-426 -274 -550 -366 -710 -461 -914 -539 -200 -76 -391 -113 -629 -121 -196
-6 -339 13 -516 72 -209 70 -522 241 -664 364 -40 34 -50 35 140 -13 402 -102
550 -126 811 -133 224 -6 333 2 510 42 179 39 400 138 488 218 49 45 100 119
121 174 80 215 -60 441 -286 460 -94 8 -167 -13 -339 -94 -187 -87 -244 -108
-366 -133 -184 -37 -439 -26 -661 30 -208 53 -370 112 -813 300 -423 179 -716
240 -1030 213z"/>
</g>
</svg>
