<svg version="1.0" xmlns="http://www.w3.org/2000/svg" preserveAspectRatio="xMidYMid meet" viewBox="119.22 100.43 283.67 244.22">

<g transform="translate(0.000000,500.000000) scale(0.100000,-0.100000)" fill="currentColor" stroke="none">
<path d="M2583 3989 c-24 -12 -28 -22 -287 -604 l-173 -390 -34 -6 c-46 -7 -55 -14 -84 -59 -24 -39 -25 -39 -78 -33 -74 8 -140 -21 -164 -72 -17 -35 -17 -38 2 -73 18 -34 36 -44 235 -134 279 -126 302 -134 341 -118 29 12 59 54 59 82 0 40 -26 94 -65 133 l-43 45 13 44 c12 40 12 48 -6 82 -10 21 -19 43 -19 49 0 6 95 223 210 483 137 309 210 483 210 505 0 20 -8 41 -18 50 -24 22 -71 29 -99 16z"/>
<path d="M3084 2869 c-112 -43 -194 -157 -194 -270 0 -48 4 -60 22 -73 12 -9 31 -16 41 -16 27 0 67 45 67 77 1 48 36 110 79 139 141 93 322 -23 297 -189 -9 -59 -68 -129 -124 -145 -27 -8 -146 -12 -376 -12 -220 0 -344 -4 -357 -11 -43 -23 -40 -103 5 -115 11 -3 188 -4 391 -2 364 3 371 3 413 26 63 34 120 89 150 146 24 45 27 62 27 146 0 87 -3 100 -30 148 -37 69 -108 132 -171 155 -66 23 -174 22 -240 -4z"/>
<path d="M1623 2614 c-23 -11 -87 -91 -220 -272 -103 -140 -194 -267 -202 -280 -16 -30 -9 -87 14 -112 19 -21 224 -140 350 -203 121 -60 318 -132 522 -192 28 -8 90 20 104 47 9 16 81 354 129 600 16 78 5 130 -32 166 -36 33 -559 262 -599 262 -19 0 -48 -8 -66 -16z"/>
<path d="M3707 2426 c-90 -25 -166 -111 -167 -188 0 -29 6 -41 24 -54 36 -23 68 -14 91 25 41 69 70 91 118 91 117 0 165 -145 72 -218 l-28 -22 -624 0 c-671 0 -673 0 -686 -51 -8 -28 7 -65 32 -78 13 -7 182 -11 506 -11 l487 0 29 -29 c80 -80 -17 -199 -123 -150 -13 5 -31 23 -40 40 -25 42 -65 55 -97 31 -59 -43 -19 -142 76 -189 45 -22 63 -25 126 -21 87 4 140 33 184 100 25 38 28 50 28 130 l0 88 47 0 c134 0 249 100 265 229 21 177 -149 324 -320 277z"/>
</g>
</svg>