<svg width="31" height="34" viewBox="0 0 31 34" fill="none" xmlns="http://www.w3.org/2000/svg">
    <path
        d="M14.8485 0.885421C14.7163 0.960165 14.3196 1.29939 13.9631 1.64436C12.1175 3.43248 11.738 3.80045 10.7836 4.70314C10.2144 5.2436 9.21971 6.18078 8.57001 6.79598C7.92031 7.41119 7.13261 8.15863 6.81639 8.46336C6.50016 8.76808 5.37325 9.84325 4.31532 10.8552C3.2574 11.8614 2.10174 12.971 1.75102 13.3217C1.14731 13.9197 1.10706 13.9714 1.04382 14.2762C0.911578 14.9086 1.17606 15.4951 1.75677 15.8516C1.9925 16.001 2.09024 16.024 2.41222 16.0183C2.94693 16.0125 3.14241 15.8976 3.9531 15.1214C4.34407 14.7476 4.6833 14.4429 4.71779 14.4429C4.75804 14.4429 4.77529 15.2536 4.77529 16.8807V19.3128L5.2985 19.4105C5.58023 19.4623 6.0172 19.5715 6.25868 19.6463C6.50016 19.7268 6.71865 19.79 6.74164 19.79C6.76464 19.79 6.79339 18.1629 6.79914 16.1793L6.81639 12.5628L7.44884 11.9648C8.45502 11.0047 11.9393 7.68716 12.566 7.08346C12.8822 6.77873 13.4514 6.23827 13.8309 5.87605C14.2103 5.51383 14.7335 5.01361 14.998 4.76063L15.4695 4.30642L15.9467 4.76063C16.2054 5.01361 17.2059 5.96804 18.1718 6.88222C19.1377 7.80216 20.2474 8.86008 20.6441 9.23955C21.0408 9.61902 21.6503 10.1997 21.9953 10.5275C22.346 10.8609 22.9784 11.4704 23.4039 11.8786L24.1801 12.6318L24.2088 18.7033L24.2376 24.7749L25.0483 24.1654C25.491 23.832 25.9395 23.487 26.0372 23.4007L26.2212 23.2455L26.2327 18.8068L26.2499 14.3682L27.0089 15.0926C27.4286 15.4893 27.8541 15.8631 27.9576 15.9206C28.2393 16.07 28.8832 16.0585 29.188 15.8976C29.4869 15.7366 29.8089 15.3801 29.9009 15.1041C30.0044 14.7936 29.9469 14.1784 29.7917 13.9197C29.7227 13.8047 29.3662 13.431 28.9925 13.086C28.6245 12.741 28.0093 12.1603 27.6298 11.7981C26.2327 10.4585 24.6746 8.98082 23.7776 8.14138C22.392 6.84773 19.4194 4.01894 17.7291 2.38031C16.8436 1.52937 16.1364 0.89117 16.0215 0.845174C15.7052 0.712934 15.1303 0.735932 14.8485 0.885421Z"
        fill="currentColor" />
    <path
        d="M19.7817 0.862417C19.4655 1.01766 19.3218 1.36263 19.3218 1.96633V2.45505L19.9657 3.076C20.3222 3.41523 20.7362 3.80045 20.8914 3.92694L21.1616 4.16267V3.29449V2.4263H21.7653H22.3691V3.88669V5.34708L22.5875 5.53107C22.7025 5.63456 23.0647 5.97379 23.3925 6.29001L23.9789 6.85922V4.13967C23.9789 1.10965 23.9847 1.15565 23.5822 0.891165C23.3925 0.758925 23.358 0.758925 21.6849 0.758925C20.1785 0.758925 19.96 0.770424 19.7817 0.862417Z"
        fill="currentColor" />
    <path
        d="M12.5659 12.902C12.3245 13.04 12.313 13.109 12.3072 14.2589C12.3072 15.7481 12.2152 15.6503 13.6526 15.6503C14.7105 15.6503 14.7163 15.6503 14.8888 15.5008L15.067 15.3513V14.2589V13.1665L14.9003 12.9998L14.7335 12.833H13.7044C13.0432 12.8388 12.6407 12.8618 12.5659 12.902Z"
        fill="currentColor" />
    <path
        d="M16.2745 12.9078C16.01 13.04 15.9813 13.1838 15.9985 14.3164L16.0158 15.3743L16.1825 15.5123C16.3435 15.6561 16.3493 15.6561 17.4302 15.6388C18.8676 15.6158 18.7698 15.7078 18.7928 14.3452C18.8158 13.2298 18.7813 13.0573 18.5111 12.9193C18.2984 12.8043 16.493 12.7985 16.2745 12.9078Z"
        fill="currentColor" />
    <path
        d="M17.1944 16.6277C16.6424 16.6507 16.1825 16.668 16.1767 16.6737C16.171 16.6795 16.125 16.76 16.0732 16.8577C15.9525 17.0877 15.9467 18.8413 16.0675 19.1288C16.1882 19.4105 16.4067 19.4623 17.5106 19.4335C18.5398 19.4163 18.6548 19.376 18.7525 19.0426C18.787 18.9276 18.8043 18.4389 18.7928 17.8812C18.7755 16.9382 18.7698 16.9152 18.6318 16.7772C18.442 16.599 18.373 16.5933 17.1944 16.6277Z"
        fill="currentColor" />
    <path
        d="M12.4337 16.76C12.313 16.8865 12.3073 16.944 12.3073 17.9961C12.3073 19.0713 12.3073 19.0943 12.4452 19.2553L12.5832 19.4163H13.6871H14.7911L14.9291 19.2553C15.067 19.0943 15.067 19.0713 15.067 18.0134C15.067 16.944 15.067 16.9325 14.9233 16.7772L14.7853 16.6278H13.6699C12.5832 16.6278 12.5545 16.6278 12.4337 16.76Z"
        fill="currentColor" />
    <path
        d="M2.33174 20.6927C2.20525 20.7042 1.77404 20.7674 1.37157 20.8364L0.63562 20.9572V21.5896C0.63562 24.3839 1.96377 27.069 4.2291 28.8456C5.24103 29.639 6.41969 30.2255 9.30597 31.3696C11.784 32.3528 13.7044 33.0083 14.5783 33.1635C15.826 33.382 17.3151 33.152 19.6954 32.3528C21.5238 31.7434 21.9148 31.5479 23.8064 30.2887C25.3645 29.2538 29.648 26.2123 29.9469 25.9248C30.5276 25.3728 30.4989 24.5794 29.8837 24.0792C29.694 23.9239 29.6077 23.9009 29.2455 23.8837C28.9695 23.8665 28.7625 23.8894 28.6303 23.9469C28.521 23.9929 27.4171 24.7001 26.181 25.5223C23.0187 27.6267 22.0988 28.1729 20.9259 28.6213C19.7759 29.0583 18.6778 29.271 17.3094 29.317C16.1825 29.3515 15.3603 29.2423 14.3426 28.9031C13.1409 28.5006 11.3413 27.5174 10.5249 26.8102C10.2949 26.6147 10.2374 26.609 11.3298 26.885C13.6412 27.4714 14.4921 27.6094 15.9927 27.6497C17.2806 27.6842 17.9073 27.6382 18.925 27.4082C19.9542 27.184 21.2248 26.6147 21.7308 26.1548C22.0125 25.8961 22.3058 25.4706 22.4265 25.1544C22.8865 23.9182 22.0815 22.6188 20.7821 22.5096C20.2417 22.4636 19.8219 22.5843 18.833 23.05C17.7578 23.5502 17.4301 23.671 16.7287 23.8147C15.6707 24.0274 14.2046 23.9642 12.9282 23.6422C11.7323 23.3375 10.8009 22.9983 8.2538 21.9173C5.82173 20.8882 4.13711 20.5374 2.33174 20.6927Z"
        fill="currentColor" />
</svg>